<svg xmlns="http://www.w3.org/2000/svg" width="105.524" height="31" viewBox="0 0 105.524 31"><g transform="translate(0 -5)"><path d="M40.511,5.865H36.555L30.506,23h3.266l1.265-3.7h7.015L43.317,23h3.266ZM35.934,16.606l2.622-7.613,2.6,7.613Zm19.3,6.67c3.726,0,6.233-2,6.233-5.014,0-2.323-1.449-3.841-4.347-4.715l-3.335-1.012c-1.288-.368-2.047-1.1-2.047-2.116,0-1.242,1.173-2.139,2.967-2.139a4.084,4.084,0,0,1,4.048,2.806L61.4,9.867a6.929,6.929,0,0,0-6.716-4.278c-3.588,0-6.049,2.024-6.049,4.968,0,2.208,1.4,3.91,4.3,4.784l3.45,1.058c1.2.368,2,.92,2,2.07,0,1.2-1.219,2.116-3.151,2.116a4.888,4.888,0,0,1-4.554-3.266l-2.622,1.2A7.316,7.316,0,0,0,55.235,23.276Zm15.453,0c3.726,0,6.233-2,6.233-5.014,0-2.323-1.449-3.841-4.347-4.715l-3.335-1.012c-1.288-.368-2.047-1.1-2.047-2.116,0-1.242,1.173-2.139,2.967-2.139a4.084,4.084,0,0,1,4.048,2.806l2.645-1.219a6.929,6.929,0,0,0-6.716-4.278c-3.588,0-6.049,2.024-6.049,4.968,0,2.208,1.4,3.91,4.3,4.784l3.45,1.058c1.2.368,2,.92,2,2.07,0,1.2-1.219,2.116-3.151,2.116a4.888,4.888,0,0,1-4.554-3.266l-2.622,1.2A7.315,7.315,0,0,0,70.688,23.276ZM79.77,23H91.316l.023-2.691H82.852V15.755h8.027V13.064H82.852V8.556h8.487V5.865H79.77Zm18.164,0h3.082V8.556h4.508V5.865H93.38V8.556h4.554Z" fill="#fff"/><path d="M30.944,35h1.024V31.528h1.016v-.92H31.968v-.192c0-.44.288-.664.76-.664a2.511,2.511,0,0,1,.312.024V28.9a2.57,2.57,0,0,0-.44-.04,1.489,1.489,0,0,0-1.656,1.56v.192h-.808v.92h.808Zm4.789.1a2.292,2.292,0,1,0-2.328-2.3A2.275,2.275,0,0,0,35.733,35.1Zm0-.936a1.355,1.355,0,1,1,1.272-1.352A1.265,1.265,0,0,1,35.733,34.16Zm5.386-3.6a1.252,1.252,0,0,0-1.256.688v-.64H38.9V35h1.024V32.544A1,1,0,0,1,41,31.472h.552V30.56Zm7.024-1.52-1.536,4.8-1.536-4.8H43.879L45.871,35h1.472l1.992-5.96Zm1.877.992h1.024V28.968H50.02Zm0,4.968h1.024V30.608H50.02Zm4.287-4.44a1.252,1.252,0,0,0-1.256.688v-.64h-.96V35h1.024V32.544a1,1,0,0,1,1.072-1.072h.552V30.56Zm3.372,4.488a3.7,3.7,0,0,0,.52-.04v-.816a2.29,2.29,0,0,1-.3.024c-.664,0-.8-.352-.8-.7V31.536h1.072v-.912H57.1v-1.3H56.078v.64a.611.611,0,0,1-.68.664h-.136v.912h.816v1.976A1.432,1.432,0,0,0,57.678,35.048Zm4.166-4.44v2.6a.936.936,0,1,1-1.872,0v-2.6H58.948V33.32a1.678,1.678,0,0,0,1.7,1.776A1.413,1.413,0,0,0,61.9,34.48V35h.968V30.608Zm3.922-.1a1.961,1.961,0,0,0-1.9,1.152l.888.432a1.043,1.043,0,0,1,1.008-.672c.48,0,.824.256.824.648v.144l-1.344.232c-1.024.168-1.544.7-1.544,1.352,0,.736.64,1.3,1.624,1.3a1.67,1.67,0,0,0,1.32-.576V35h.968V32.072A1.643,1.643,0,0,0,65.766,30.512Zm-.32,3.792c-.408,0-.688-.184-.688-.544,0-.232.16-.48.624-.568l1.2-.216v.272A1.08,1.08,0,0,1,65.446,34.3Zm3.074.7h1.024V28.944H68.52Zm6.327.1c1.3,0,2.168-.7,2.168-1.744,0-.808-.5-1.336-1.512-1.64l-1.16-.352c-.448-.128-.712-.384-.712-.736,0-.432.408-.744,1.032-.744a1.421,1.421,0,0,1,1.408.976l.92-.424a2.41,2.41,0,0,0-2.336-1.488c-1.248,0-2.1.7-2.1,1.728,0,.768.488,1.36,1.5,1.664l1.2.368c.416.128.7.32.7.72,0,.416-.424.736-1.1.736a1.7,1.7,0,0,1-1.584-1.136l-.912.416A2.545,2.545,0,0,0,74.848,35.1Zm5.143,0a2.072,2.072,0,0,0,1.992-1.272l-.88-.448a1.144,1.144,0,0,1-1.112.784,1.357,1.357,0,0,1-.008-2.7,1.162,1.162,0,0,1,1.12.776l.88-.432a2.062,2.062,0,0,0-1.992-1.288,2.292,2.292,0,1,0,0,4.584Zm4.981-4.576a1.467,1.467,0,0,0-1.216.528v-2.1H82.731V35h1.024V32.408a.936.936,0,1,1,1.872,0V35h1.024V32.16A1.594,1.594,0,0,0,84.971,30.52ZM89.726,35.1A2.292,2.292,0,1,0,87.4,32.8,2.275,2.275,0,0,0,89.726,35.1Zm0-.936A1.355,1.355,0,1,1,91,32.808,1.265,1.265,0,0,1,89.726,34.16Zm5.258.936a2.292,2.292,0,1,0-2.328-2.3A2.275,2.275,0,0,0,94.983,35.1Zm0-.936a1.355,1.355,0,1,1,1.272-1.352A1.265,1.265,0,0,1,94.983,34.16Zm3.17.84h1.024V28.944H98.153Zm3.822.1c1.024,0,1.736-.544,1.736-1.336,0-.6-.416-1.056-1.192-1.264l-.808-.216c-.224-.072-.528-.184-.528-.472,0-.272.264-.448.664-.448a1.091,1.091,0,0,1,1.064.656l.792-.368a1.888,1.888,0,0,0-1.856-1.136c-1,0-1.672.544-1.672,1.336,0,.6.384,1.048,1.176,1.256l.768.2c.256.072.584.184.584.488,0,.288-.3.48-.728.48a1.263,1.263,0,0,1-1.2-.784l-.792.368A2,2,0,0,0,101.975,35.1Z" fill="#fff"/><path d="M25,27.013A19.478,19.478,0,0,0,18,30V5h7Z" fill="#06cbad"/><path d="M7,29.85A19.264,19.264,0,0,0,0,26.98V11H7Z" fill="#fe466c"/><path d="M16,31.583A15.984,15.984,0,0,0,12.5,36,14.649,14.649,0,0,0,9,31.418V8h7Z" fill="#f6cd01"/><path d="M13.364,20.543l7.454-6.833,1.365,3.58-8.819,7L8.818,21.124,2.183,25.29v-.58l6.636-7.334Z" fill="#fff" fill-rule="evenodd"/><path d="M20.25,16.75l-5.25-2v-.5l8.75-1-1,8.75h-.5Z" fill="#fff" fill-rule="evenodd"/></g></svg>